<?xml version="1.0" encoding="UTF-8" standalone="no"?>
<svg
   xmlns:dc="http://purl.org/dc/elements/1.1/"
   xmlns:cc="http://creativecommons.org/ns#"
   xmlns:rdf="http://www.w3.org/1999/02/22-rdf-syntax-ns#"
   xmlns:svg="http://www.w3.org/2000/svg"
   xmlns="http://www.w3.org/2000/svg"
   id="svg8"
   version="1.1"
   viewBox="0 0 65.809189 61.535263"
   height="61.535263mm"
   width="65.809189mm">
  <defs
     id="defs2" />
  <metadata
     id="metadata5">
    <rdf:RDF>
      <cc:Work
         rdf:about="">
        <dc:format>image/svg+xml</dc:format>
        <dc:type
           rdf:resource="http://purl.org/dc/dcmitype/StillImage" />
        <dc:title></dc:title>
      </cc:Work>
    </rdf:RDF>
  </metadata>
  <g
     transform="translate(-54.875194,-100.09156)"
     id="layer1">
    <path
       transform="scale(0.26458333)"
       id="path4526"
       d="M 210.09961,378.29883 257.73242,511.4375 H 388.9707 l 45.84961,-132.90625 -112.35937,-0.11523 z"
       style="fill:#e2d19d;fill-opacity:1;stroke:none;stroke-width:1.11615038;stroke-opacity:1" />
    <path
       transform="scale(0.26458333)"
       id="path10"
       d="m 221.24219,518.44922 c 0.30975,50.84344 46.3388,91.91572 103.01758,91.92383 28.33748,-0.006 54.012,-10.27742 72.64087,-26.90176 4.65721,-4.15608 8.87408,-8.70925 12.58211,-13.5984 3.70803,-4.88915 46.07663,9.03245 46.14714,-18.77099 0.0521,-20.55226 -31.95157,-8.11811 -30.55279,-14.10671 1.39878,-5.98861 2.15177,-12.19097 2.19048,-18.54597 z"
       style="fill:none;stroke:#000000;stroke-width:0.99999994;stroke-opacity:1" />
    <ellipse
       ry="2.1615512"
       rx="2.1969867"
       cy="146.43553"
       cx="115.87333"
       id="path4509"
       style="fill:none;stroke:#000000;stroke-width:0.26458332;stroke-opacity:1" />
    <path
       id="path4511"
       d="m 55.007506,136.76604 c 0.0064,0.0517 0.01944,0.10339 0.03927,0.15503 h 6.877489 l 0.08893,2.83482 46.967425,-0.0472 0.0361,-2.78758 h 7.40666 c 0.0253,-0.0516 0.0439,-0.10331 0.0558,-0.15503 -1.8e-4,-1.18084 -9.00247,-3.02373 -9.00247,-3.02373 0,0 9.93781,-31.50829 6.58475,-31.48799 -13.61059,0.0824 -43.427627,-0.31771 -57.297476,-0.2835 -3.315187,0.008 7.246127,31.77147 7.246127,31.77147 0,0 -9.002442,1.84289 -9.002625,3.02375 z"
       style="fill:#324282;fill-opacity:1;stroke:#000000;stroke-width:0.26458332;stroke-opacity:1" />
    <path
       transform="scale(0.26458333)"
       id="path10-3"
       d="m 240.47656,571.73438 c 18.69664,23.39787 49.26483,38.63372 83.78321,38.63867 28.33749,-0.008 54.01175,-10.27798 72.64062,-26.90235 4.06036,-3.62345 7.78532,-7.5497 11.13086,-11.73632 z"
       style="fill:#422309;fill-opacity:1;stroke:none;stroke-width:0.99999994;stroke-opacity:1" />
    <ellipse
       ry="1.4410343"
       rx="1.1811756"
       cy="143.14005"
       cx="86.792778"
       id="path4549"
       style="fill:#422309;fill-opacity:1;stroke:none;stroke-width:0.26458332;stroke-opacity:1" />
    <flowRoot
       transform="matrix(0.26458333,0,0,0.26458333,-32.205978,-0.26726961)"
       style="font-style:normal;font-weight:normal;font-size:40px;line-height:1.25;font-family:sans-serif;letter-spacing:0px;word-spacing:0px;fill:#325682;fill-opacity:1;stroke:none"
       id="flowRoot4551"
       xml:space="preserve"><flowRegion
         style="fill:#325682;fill-opacity:1"
         id="flowRegion4553"><rect
           style="fill:#325682;fill-opacity:1"
           y="415.4129"
           x="277.79196"
           height="267.18536"
           width="338.40112"
           id="rect4555" /></flowRegion><flowPara
         style="font-size:32px;text-align:center;text-anchor:middle;fill:#325682;fill-opacity:1"
         id="flowPara4594">eCSStractor</flowPara><flowPara
         id="flowPara4600"
         style="font-size:26.66666794px;text-align:center;text-anchor:middle;fill:#325682;fill-opacity:1">for VS code</flowPara></flowRoot>  </g>
</svg>
